<?xml version="1.0" encoding="utf-8"?>
<!-- Generator: Adobe Illustrator 27.0.0, SVG Export Plug-In . SVG Version: 6.00 Build 0)  -->
<svg version="1.1" id="圖層_1" xmlns="http://www.w3.org/2000/svg" xmlns:xlink="http://www.w3.org/1999/xlink" x="0px" y="0px"
	 viewBox="0 0 364 279" style="enable-background:new 0 0 364 279;" xml:space="preserve">
<style type="text/css">
	.st0{fill:#FFFFFF;}
</style>
<g id="cate-rem" transform="translate(-3783 14187)">
	<g id="Group_569" transform="translate(3087.525 -15065)">
		<g id="Group_106" transform="translate(722.864 997.97)">
			<path id="Path_66" class="st0" d="M94,18.2c0,0-7.3-12-10.3-16.5c-3-4.4-7.3-4.5-11.4-4.5H43.8c2.3,1.6,4.2,3.6,5.7,6
				c1.4,2.1,19.4,30.7,19.4,30.7l-8.7,5.4h28.1l12.4-25.2L94,18.2z"/>
			<path id="Path_66_-_Outline" class="st0" d="M43.8-3.4h28.6c2.1-0.1,4.2,0.1,6.3,0.6c2.3,0.7,4.3,2.1,5.6,4.2
				c2.6,3.9,8.6,13.7,10,16l7.8-4.8L88.6,39.9H58.2l9.9-6.2C65.8,30,50.3,5.4,49,3.5c-1.4-2.3-3.3-4.3-5.5-5.8l-1.7-1L43.8-3.4z
				 M93.9,19l-0.3-0.5C93.5,18.4,86.2,6.4,83.3,2c-2.9-4.3-7.1-4.3-10.9-4.3h-27c1.7,1.5,3.3,3.2,4.5,5.1c1.4,2,18.7,29.5,19.4,30.7
				l0.3,0.5l-7.5,4.7h25.8l11.4-23.2L93.9,19z"/>
			<path id="Path_67" class="st0" d="M51.5,13c0,0-3.3-5.3-5.5-8.3S40-2.8,33.2-2.8s-11.5,3.7-14.7,10S6.6,29.3,6.6,29.3l27.8,14.9
				L51.5,13z"/>
			<path id="Path_67_-_Outline" class="st0" d="M33.2-3.4c3,0,6,0.9,8.5,2.7c1.9,1.4,3.5,3.1,4.8,5c2.1,3.1,5.4,8.3,5.5,8.4l0.2,0.3
				L52,13.2L34.7,44.9l-0.5-0.3L5.9,29.5L6.2,29C6.2,28.8,14.9,13.1,18,6.9c1.4-3,3.6-5.6,6.2-7.6C26.9-2.5,30-3.4,33.2-3.4z
				 M50.9,13c-0.7-1.1-3.5-5.4-5.3-8.1c-3.3-4.8-7.4-7.2-12.4-7.2C27.1-2.2,22.3,1,19,7.4C16.2,13,8.9,26.3,7.4,29l26.8,14.4
				L50.9,13z"/>
			<path id="Path_68" class="st0" d="M80.8,56.9l27.4-15.2c0,0,12.7,21.4,14.8,25.1c2.1,3.7,2.5,12.1-3.4,16.9c-5,4.1-10.4,4-13.7,4
				h-7.4L80.8,56.9z"/>
			<path id="Path_68_-_Outline" class="st0" d="M108.4,40.9l0.3,0.5c0.1,0.2,12.7,21.4,14.8,25.1c1.3,2.6,1.8,5.5,1.4,8.4
				c-0.4,3.6-2.1,6.9-4.9,9.2c-2.2,1.8-4.7,3-7.5,3.6c-2,0.4-4.1,0.6-6.2,0.5h-8.1L80,56.7L108.4,40.9z M106.3,87.1
				c3.1,0,8.2,0,13-3.9c5.5-4.5,5.4-12.4,3.3-16.2c-1.9-3.4-12.7-21.5-14.5-24.6L81.6,57.1l17.3,30L106.3,87.1z"/>
			<path id="Path_69" class="st0" d="M116.4,90.2c0,0-15.1,22.7-16.7,24.9s-5.1,5.2-9.3,5.2H70.9v8.2l-15.1-24.6l15-23.3v10.5h40.8
				C113.3,91,114.9,90.7,116.4,90.2z"/>
			<path id="Path_69_-_Outline" class="st0" d="M71.4,78.7v11.8h40.3c1.6-0.1,3.1-0.3,4.6-0.8l1.5-0.5l-0.9,1.3
				c-0.6,0.9-15.1,22.7-16.7,25c-1.9,2.6-5.5,5.4-9.8,5.4H71.4v9.6l-16.3-26.6l0.2-0.3L71.4,78.7z M111.6,91.6H70.3v-9.1l-13.8,21.4
				l13.8,22.6v-6.7h20c3.9,0,7.1-2.6,8.9-4.9c1.4-1.9,12.7-18.9,15.9-23.7C114,91.4,112.8,91.6,111.6,91.6L111.6,91.6z"/>
			<path id="Path_70" class="st0" d="M44.4,90v30.9H16.6c-4.8,0-9.8-1.5-13.3-7.1c-3.5-5.7-2.6-10.4,0-14.8c2.6-4.4,5.5-9,5.5-9
				L44.4,90z"/>
			<path id="Path_70_-_Outline" class="st0" d="M8.5,89.5H45v32H16.6c-2.5,0.1-5.1-0.5-7.4-1.5c-2.7-1.3-4.9-3.3-6.4-5.9
				c-1.6-2.4-2.4-5.3-2.4-8.2c0.2-2.5,1-5,2.4-7.2c2.5-4.4,5.5-9,5.5-9.1L8.5,89.5z M43.9,90.6H9.1c-0.7,1-3.2,5-5.4,8.8
				c-2.9,5.1-3,9.4,0,14.2c2.9,4.6,7.1,6.9,12.9,6.9h27.3V90.6z"/>
			<path id="Path_71" class="st0" d="M-2.2,104.2c0.2-2.4,0.9-4.7,2.2-6.8c2.1-3.4,19.4-32.7,19.4-32.7l8.6,4.9L13.3,46.5H-14
				l7.3,4.3c0,0-8.2,13.6-9.9,16.3s-1.4,6.2,0.3,10.1S-2.2,104.2-2.2,104.2z"/>
			<path id="Path_71_-_Outline" class="st0" d="M-1.6,106.4l-1-1.9c-0.5-0.9-12.5-23.3-14.1-27.1c-1.9-4.3-1.9-7.9-0.3-10.6
				c1.5-2.4,8.1-13.4,9.6-15.8l-8.6-5h29.7l14.9,23.5l-0.7,0.8l-8.1-4.6C17.4,69.3,2.5,94.6,0.5,97.7c-1.2,2-2,4.2-2.1,6.5
				L-1.6,106.4z M-12,47l6,3.5L-6.2,51c-0.1,0.1-8.2,13.6-9.9,16.3c-1.5,2.4-1.4,5.7,0.3,9.6c1.4,3.2,10.4,20.2,13.3,25.5
				c0.4-1.9,1.1-3.7,2.1-5.3c2.1-3.3,19.2-32.4,19.4-32.6l0.3-0.5l7.1,4L13,47H-12z"/>
		</g>
		<g id="Group_110" transform="translate(720.864 905.226)">
			<path id="Path_94" class="st0" d="M278.4,204"/>
			<path id="Path_95" class="st0" d="M227.8,221.9l-0.2-0.1l-30.4-17.2c-0.4,0.1-0.8-0.1-1.1-0.4c-0.6-0.6-0.6-1.8,0-3.7
				c1.3-3.9,10.5-34.2,10.6-34.5l0-0.1l0.1-0.1c1-1.3,25.3-31.9,27.9-34.6c1.2-1.2,3.6-2,7.3-2.5c1.7-0.2,3.4-0.3,5.1-0.3v1.1
				c-2.5,0-9.5,0.4-11.6,2.5c-2.5,2.5-26.4,32.6-27.8,34.4c-0.6,1.9-9.3,30.6-10.6,34.5c-0.7,2.1-0.3,2.5-0.3,2.6
				c0.1,0.1,0.3,0,0.3,0l0.2-0.1l30.6,17.3l34.2-3.9l15.8-13.2l0.7,0.9l-16.1,13.4l-0.2,0L227.8,221.9z"/>
			<path id="Path_96" class="st0" d="M317.3,173l-0.8-0.7c0.6-0.7,1.1-1.5,1.5-2.4c0.3-1.1,0.8-17,1.1-27.4l1.1,0
				c0,0.1-0.2,6.6-0.4,13.3c-0.4,13.5-0.7,14.2-0.8,14.4C318.6,171.3,318,172.2,317.3,173z"/>
			<path id="Path_97" class="st0" d="M311.6,168.7c2.2-0.1,4.3,1,5.5,2.9c1,1.8,1.5,3.8,1.3,5.9c-0.3,3.2-1.2,6.3-2.5,9.2
				c-1.3,3.1-3.4,5.9-6,8c-2,1.6-4.4,2.4-6.9,2.5c-1.8,0-3.5-0.6-4.8-1.7c-1.3-1.3-2-3-2-4.8c-0.1-3.7,0.5-7.3,1.9-10.7
				c1.9-4.2,5.1-7.6,9-9.9C308.5,169.1,310,168.7,311.6,168.7z M302.9,196.1c2.3-0.1,4.4-0.9,6.2-2.3c2.5-2,4.4-4.6,5.7-7.6
				c1.3-2.8,2.2-5.8,2.4-8.9c0.2-1.8-0.2-3.6-1.1-5.2c-1-1.5-2.8-2.4-4.6-2.4c-1.4,0-2.7,0.4-3.8,1.1c-9.2,5.7-10.4,12.9-10.4,19.7
				c-0.1,1.5,0.5,3,1.6,4C300,195.6,301.5,196.2,302.9,196.1L302.9,196.1z"/>
			<path id="Path_98" class="st0" d="M289.7,173.3l-2.3-28.6l1.1-0.1l2.3,28.6L289.7,173.3z"/>
			<path id="Path_99" class="st0" d="M281.1,205.3c0,0-0.1,0-0.1,0c-0.8-0.2-6.4-2-7-2.2l-0.4-0.1l0-0.4l1-26.2l5.7-2.8l5.8,1
				c1.7-0.9,15.2-8.3,16.6-9c1.6-0.6,3.5-0.6,5.1-0.1c1.9,0.5,3.5,1.8,4.5,3.5l-1,0.5c-0.8-1.5-2.2-2.5-3.8-3
				c-1.4-0.5-2.9-0.5-4.3,0c-1.4,0.8-16.6,9-16.7,9.1l-0.2,0.1l-5.9-1l-4.7,2.3l-0.9,25.1c2.4,0.8,5.7,1.9,6.4,2
				c1.3-0.3,11.9-5.4,18.5-8.7l0.5,1c0,0-4.5,2.3-9.1,4.4C282.7,204.9,281.5,205.3,281.1,205.3z"/>
			<path id="Path_100" class="st0" d="M276.4,145.5l-2.9-9.1c-0.3-1.3,0-2.6,0.7-3.6c0.8-1,2-1.6,3.3-1.6l53.1-3.8l0.1,1.1
				l-53.1,3.8c-1,0-1.9,0.4-2.5,1.1c-0.5,0.8-0.7,1.8-0.5,2.7l2.8,9L276.4,145.5z"/>
			<path id="Path_101" class="st0" d="M20.7,105.5l-38.5-23.6c-0.6-0.4-0.7-1.2-0.6-2.7c0.2-1.5,0.5-3,1-4.5
				c0.9-3.2,2.3-7.4,4.3-12.5c3.5-9.1,7.3-17.8,7.9-18.6c0.5-0.8,6.9-9.3,13.9-18.1c4-5,7.4-9.1,10.1-12.2c3.4-3.9,5.7-6,6.8-6.6
				c3.4-1.4,7-2.2,10.6-2.2l0,1.1l0,0C32.7,5.8,29.2,6.5,26,7.9c-1.1,0.5-4.7,3.6-16.5,18.5c-6.8,8.6-13.4,17.3-13.9,18
				c-0.4,0.6-4.2,9.1-7.7,18.3c-1.9,5.1-3.4,9.2-4.2,12.4c-0.4,1.4-0.7,2.8-0.9,4.3c-0.1,1.4,0.1,1.6,0.1,1.7l38.5,23.6L20.7,105.5z
				"/>
			<path id="Line_6" class="st0" d="M196.1,201.9l-8.5-1.7l0.2-1.1l8.5,1.7L196.1,201.9z"/>
			<path id="Path_102" class="st0" d="M223.4,218.6l-1.1-0.3l11-36.3l0.1-0.1c1-1.3,25.6-32,27.8-34.4c1.8-1.9,4-3.5,6.5-4.4
				c1.1-0.5,2.2-0.8,3.4-1l0.2,1.1c-1.1,0.2-2.2,0.5-3.2,1c-2.3,0.9-4.4,2.3-6,4.1c-2.1,2.4-26.2,32.5-27.7,34.3L223.4,218.6z"/>
			<path id="Line_7" class="st0" d="M207,166.6L-5.2,44.5l0.6-1l212.2,122.2L207,166.6z"/>
			<path id="Path_103" class="st0" d="M316.4,171l-1.1-0.1c0-0.1,0.9-8.4,1.1-13.2c0.1-2.3-0.3-3.8-1.2-4.5
				c-0.6-0.5-1.5-0.6-2.2-0.4c-1.7,0.4-14.2,5.3-20.6,7.9l-0.4-1c0.8-0.3,18.5-7.4,20.8-7.9c1.1-0.3,2.3-0.1,3.2,0.6
				c1.1,1,1.7,2.8,1.6,5.4C317.3,162.5,316.4,170.9,316.4,171z"/>
			<path id="Path_104" class="st0" d="M292.1,179.2c-0.2,0-0.5,0-0.7,0c-1-0.1-1.9-0.5-2.7-1.1l-0.5-0.4l-0.1-0.1
				c-1.1-0.9-2.3-1.9-2.3-1.9l0.7-0.9c0,0,1.1,1,2.3,1.9l0.1,0.1l0.5,0.4c1.2,1,2.8,1.2,4.2,0.6c1.3-0.8,9.5-4.8,9.8-4.9l0.5,1
				c-0.1,0-8.5,4.1-9.7,4.9C293.5,179,292.8,179.2,292.1,179.2z"/>
			<path id="Line_8" class="st0" d="M281.5,180.5l-6.7-3.4l0.5-1l6.7,3.4L281.5,180.5z"/>
			<path id="Path_105" class="st0" d="M281.6,204.7l-1.1,0c0-0.9,0.3-22.9,0.4-24.2c0-0.6,0.5-1.4,3.8-2.7c1.7-0.7,3.4-1.3,3.5-1.3
				l0.3,1.1c0,0-1.6,0.5-3.2,1.2c-2.9,1.2-3.3,1.8-3.3,1.9C281.9,182.1,281.6,204.5,281.6,204.7z"/>
			<path id="Path_106" class="st0" d="M303,187.5c-0.4,0-0.5-0.1-0.6-0.1c-0.3-0.2-4.7-3.1-5.2-3.4l0.6-0.9c1.8,1.2,4.6,3,5.1,3.3
				c1.9-0.1,3.9-0.3,5.8-0.7c0.6-0.3,1.1-0.9,1-1.6c-0.1-2.3-0.4-4.5-0.8-6.7l-5.6-3.7l-6-4.4l0.7-0.9l6,4.4l5.7,3.7
				c0.2,0.2,0.3,0.4,0.5,1.4c0.1,0.6,0.2,1.3,0.3,2.2c0.2,1.6,0.4,3.4,0.4,3.9c0,1.2-0.7,2.2-1.8,2.7c-1.1,0.2-2.2,0.4-3.4,0.5
				C304.2,187.4,303.4,187.5,303,187.5z"/>
			<path id="Line_9" class="st0" d="M302.4,186.7l-0.9-0.6l6.8-9.8l0.9,0.6L302.4,186.7z"/>
			<path id="Path_107" class="st0" d="M310.9,138c1,0,2,0.5,2.5,1.4c1.3,2.1,1.1,6.3-1.8,10.2c-1.2,1.8-3.1,3-5.2,3.2
				c-1.5,0-2.9-0.9-3.3-2.4c-0.5-1.7-0.4-3.5,0.2-5.1c0.5-1.6,1.4-3.1,2.5-4.3C307.1,139.3,308.9,138.2,310.9,138z M306.4,151.6
				c1.8-0.2,3.4-1.2,4.3-2.7c1.2-1.5,1.9-3.3,2.2-5.2c0.2-1.3,0.1-2.6-0.5-3.7c-0.3-0.5-0.9-0.9-1.6-0.8c-1.7,0.2-3.2,1.1-4.3,2.5
				c-1.9,2.1-3.4,5.9-2.5,8.4C304.5,151,305.4,151.6,306.4,151.6L306.4,151.6z"/>
			<path id="Path_108" class="st0" d="M276.3,146c-0.2,0-0.4,0-0.6,0c-1.5-0.3-2.9-1-4.1-1.9c-2.8-1.9-141-82.9-207.5-121.8
				C42.3,9.4,31.8,3.3,31.6,3.2c-0.2-0.2-0.5-0.4-1-2.2c-0.3-0.9-0.6-2.1-0.9-3.7c-0.6-2.6-1-5.1-1-5.1l0-0.1V-8
				c0-0.1,0-1.9,3.2-1.9c2.6,0,53.9-4.2,54.4-4.2l0.2,0l0.2,0.1l244.4,141.6l0.1,0.1c0.3,0.7,0.5,1.4,0.5,2.1
				c0.1,1.7-0.5,3.4-1.5,4.7c-2.8,3-5.7,5.9-8.9,8.5l-0.2,0.1h-0.2l-7.2,0.1l0-1.1l7-0.1c3.1-2.5,5.9-5.2,8.6-8.2
				c0.9-1.1,1.4-2.4,1.3-3.8c0-0.5-0.2-1.1-0.4-1.6L86.3-12.9c-3.8,0.3-51.8,4.2-54.4,4.2c-1.5,0-2,0.5-2.1,0.8
				c0.1,0.4,0.5,2.6,1,4.8c0.9,4.4,1.4,5.2,1.5,5.4c0.9,0.5,13.5,7.9,32.5,19c66.5,38.9,204.7,119.9,207.6,121.9
				c3,2.1,4.2,1.8,4.4,1.7l0.1-0.1l0.1,0l27.9-2.2l0.1,1.1l-27.8,2.1C276.9,146,276.6,146,276.3,146z"/>
			<path id="Path_109" class="st0" d="M29.6,43.7c-0.1-0.6-3-14.5-2.9-17.2c0.1-1.5,0.8-3,1.8-4.1c0.8-1,1.8-1.8,3-2.2
				c1.5-0.4,22.3-4.5,23.2-4.6l0.2,1.1c-0.2,0-21.7,4.2-23.1,4.6c-2.1,1-3.6,3-3.9,5.3c-0.1,2.6,2.9,16.8,2.9,17L29.6,43.7z"/>
			<path id="Path_110" class="st0" d="M69.2,66.7C69,66.2,66,54.5,65.6,51.8c-0.3-1.7,0-3.5,0.6-5c0.9-2,2.7-3.4,4.9-3.7
				c4.7-0.8,13.1-2.2,13.2-2.2l0.2,1.1c-0.1,0-8.5,1.4-13.1,2.2c-4.4,0.8-5,5-4.6,7.5c0.4,2.6,3.5,14.7,3.5,14.8L69.2,66.7z"/>
			<path id="Path_111" class="st0" d="M70.5,66.5l-0.6-0.9l4.9-3.1l5.8-20.6l1.1,0.3l-5.9,21L70.5,66.5z"/>
			<path id="Line_10" class="st0" d="M173.1,119.9L75,63.2l0.6-1l98.1,56.6L173.1,119.9z"/>
			<path id="Path_112" class="st0" d="M174.6,127.9c-0.1-0.5-2.6-13.1-2.6-16.8c-0.1-1.7,0.4-3.3,1.4-4.6c1.1-1.2,2.6-2,4.2-2.4
				c1.3-0.3,2.5-0.5,3.8-0.6c2.8-0.3,5.5-0.6,5.8-2.4l1.1,0.2c-0.2,1.3-1.2,2.3-2.5,2.6c-1.4,0.4-2.8,0.6-4.2,0.7
				c-1.2,0.1-2.4,0.3-3.6,0.6c-3.5,1-4.9,2.7-4.8,5.9c0.1,3.6,2.6,16.5,2.6,16.6L174.6,127.9z"/>
			<path id="Path_113" class="st0" d="M229.9,126.2L43.9,18.7l0.6-1l185.3,107l3.7-4.1l0.8,0.7L229.9,126.2z"/>
			<path id="Path_114" class="st0" d="M214.6,151.1c-0.1-0.6-3-14.3-3.2-16.7c-0.1-1.6,0.4-3.2,1.4-4.4c1.2-1.6,3-2.8,4.9-3.3
				c4-0.9,8-1.5,12.1-1.8l0.3,0l4.9,7.2l-0.9,0.6l-4.5-6.7c-3.9,0.3-7.8,0.9-11.6,1.8c-4.1,1.1-5.7,4.5-5.5,6.5
				c0.2,2.4,3.2,16.5,3.2,16.6L214.6,151.1z"/>
			<path id="Line_11" class="st0" d="M233.7,131l-0.8-0.8l6.1-6.3l0.8,0.8L233.7,131z"/>
			<path id="Path_115" class="st0" d="M28.7,90.4L28.7,90.4c0.3,0,0.5,0.1,0.8,0.2L176.1,173l-7.8,19.8l-0.6-0.3L22.1,109.6
				c-0.7-0.6-1.2-1.4-1.3-2.3c-0.4-2.6-0.5-5.3-0.3-8c0.1-1.3,0.2-2.5,0.3-3.6c0.2-1.6,0.4-1.8,0.4-2c1-0.8,2-1.5,3.2-2
				C25.8,91.1,27.2,90.6,28.7,90.4z M29,91.5c-0.1,0-0.1,0-0.2,0c-1.3,0.2-2.6,0.6-3.7,1.3c-1,0.4-1.9,1-2.8,1.7
				c-0.5,2.4-0.7,4.7-0.7,7.1c-0.1,4.7,0.5,6.7,1.1,7.1l145.1,82.5l6.9-17.7L29,91.5L29,91.5z"/>
			<path id="Path_116" class="st0" d="M168.6,191.9h-1.1c0-0.1,0-7.8-0.2-10.4c-0.2-2.7,0.3-4.4,1.6-5.4c1.2-0.9,6-3.3,6.2-3.4
				l0.5,1c0,0-4.9,2.5-6.1,3.3c-1,0.8-1.4,2.1-1.2,4.4C168.6,184,168.6,191.6,168.6,191.9z"/>
			<path id="Path_117" class="st0" d="M217.7,153.2L30.3,44.4L19.4,58L2.6,93.7l-1-0.5l16.9-35.8l0-0.1L30,42.9l188.3,109.3
				L217.7,153.2z"/>
			<path id="Path_118" class="st0" d="M188,200.5l-0.5-0.3l-18.3-11.3l0.6-0.9l17.8,11l16.3-34.7l0-0.1l10.8-13.4l0.9,0.7
				l-10.8,13.3L188,200.5z"/>
			<path id="Line_12" class="st0" d="M57.7,26.2l-0.8-0.7l4.9-5.4l0.8,0.7L57.7,26.2z"/>
			<path id="Path_119" class="st0" d="M242.8,112.4l-0.1-0.1c-1.7-1-170-98.7-172-99.8c-1.3-0.7-1.8-1.4-1.7-2.1
				c0.2-0.5,0.6-0.9,1.2-0.9C71.1,9.4,91.9,8,92.8,8l0.1,1.1c-0.2,0-21.7,1.4-22.6,1.5c-0.1,0-0.1,0-0.1,0c0.3,0.4,0.7,0.7,1.1,0.9
				c1.9,1.1,165.9,96.3,171.8,99.7l25.5-1.9l0.1,1.1L242.8,112.4z"/>
			<path id="Line_13" class="st0" d="M218.1,97.9l-0.1-1.1l24.7-2.2l0.1,1.1L218.1,97.9z"/>
			<path id="Line_14" class="st0" d="M193.6,83.5l-0.1-1.1l24.7-2.2l0.1,1.1L193.6,83.5z"/>
			<path id="Line_15" class="st0" d="M168.6,68.9l-0.1-1.1l24.7-2.2l0.1,1.1L168.6,68.9z"/>
			<path id="Line_16" class="st0" d="M144,54.8l-0.1-1.1l24.7-2.2l0.1,1.1L144,54.8z"/>
			<path id="Line_17" class="st0" d="M118.9,40.1l-0.1-1.1l24.7-2.2l0.1,1.1L118.9,40.1z"/>
			<path id="Line_18" class="st0" d="M94.2,25.9l-0.1-1.1l24.7-2.2l0.1,1.1L94.2,25.9z"/>
			<path id="Line_19" class="st0" d="M77.7,16.3l-0.5-1l13.8-7l0.5,1L77.7,16.3z"/>
			<path id="Line_20" class="st0" d="M103.3,30.6l-0.5-1l13.8-7l0.5,1L103.3,30.6z"/>
			<path id="Line_21" class="st0" d="M127.6,45.2l-0.5-1l13.1-7.1l0.5,1L127.6,45.2z"/>
			<path id="Line_22" class="st0" d="M152.8,59.8l-0.5-1l13-7l0.5,1L152.8,59.8z"/>
			<path id="Line_23" class="st0" d="M177.8,74.3l-0.5-1l13.2-7.4l0.5,1L177.8,74.3z"/>
			<path id="Line_24" class="st0" d="M202.6,88.7l-0.6-1l12.2-7.2l0.6,1L202.6,88.7z"/>
			<path id="Line_25" class="st0" d="M227.9,103.4l-0.6-0.9l12-7.5l0.6,0.9L227.9,103.4z"/>
			<path id="Path_120" class="st0" d="M259.3,217.9l-1.1-0.3l2.1-7.3l-35.3,1.9l-0.1-1.1l36.9-2L259.3,217.9z"/>
			<path id="Line_26" class="st0" d="M240.4,220.4l-1-0.4l3.7-9.6l1,0.4L240.4,220.4z"/>
			<path id="Line_27" class="st0" d="M237.9,220.4l-1-0.4l3.7-9.6l1,0.4L237.9,220.4z"/>
			<path id="Line_28" class="st0" d="M230.3,221l-1-0.4l3.7-9.6l1,0.4L230.3,221z"/>
			<path id="Line_29" class="st0" d="M227.2,221l-1-0.4l3.7-9.6l1,0.4L227.2,221z"/>
			<path id="Line_30" class="st0" d="M248.9,219l-1-0.4l3.3-8.6l1,0.4L248.9,219z"/>
			<path id="Line_31" class="st0" d="M251.5,219l-1-0.4l3.3-8.6l1,0.4L251.5,219z"/>
			<path id="Line_32" class="st0" d="M255.8,218.6l-1-0.4l3.3-8.6l1,0.4L255.8,218.6z"/>
		</g>
	</g>
</g>
</svg>
